<?xml version="1.0" encoding="UTF-8"?>
<svg xmlns="http://www.w3.org/2000/svg" width="144" height="34" viewBox="0 0 144 34" fill="none">
  <path d="M34.2486 13.4037C34.6762 14.489 34.8799 15.6495 34.8476 16.8155C34.8152 17.9816 34.5475 19.129 34.0604 20.1889C33.5733 21.2488 32.8769 22.1993 32.0131 22.9832C31.1493 23.7671 30.1359 24.3683 29.0339 24.7506C27.9553 25.1757 26.8009 25.3751 25.6422 25.3365C24.4835 25.298 23.345 25.0222 22.2971 24.5264C21.2491 24.0305 20.314 23.3251 19.5494 22.4536C18.7847 21.5821 18.2069 20.5632 17.8516 19.4596C17.428 18.3755 17.2277 17.217 17.2627 16.0536C17.2977 14.8902 17.5672 13.7458 18.0552 12.6891C18.5432 11.6324 19.2396 10.6852 20.1026 9.90414C20.9656 9.1231 21.9774 8.5244 23.0774 8.14389C24.1527 7.71301 25.3053 7.50825 26.4632 7.54239C27.6212 7.57653 28.7597 7.8488 29.8078 8.34229C30.8559 8.83578 31.7911 9.53988 32.5551 10.4107C33.3191 11.2815 33.8956 12.3004 34.2486 13.4037ZM29.5282 15.1477C28.5788 12.5003 26.4614 11.8911 24.6597 12.5537C22.8899 13.2074 21.621 15.0676 22.5719 17.7142C23.5102 20.3297 25.6847 20.9908 27.4516 20.3371C29.2503 19.6738 30.4754 17.7942 29.526 15.1469L29.5282 15.1477Z" fill="#292F51"></path>
  <path d="M39.8466 25.325H34.8232V0.396759H39.8466V9.08216C41.0056 8.06841 42.5045 7.52954 44.0437 7.57324C48.3423 7.57324 50.2567 10.5578 50.2567 14.2131V25.3257H45.2332V15.0846C45.2332 13.4415 44.3743 12.2009 42.5563 12.2009C42.201 12.1947 41.8481 12.2598 41.5183 12.3921C41.1885 12.5244 40.8886 12.7214 40.6361 12.9714C40.3836 13.2214 40.1837 13.5194 40.0481 13.8478C39.9126 14.1763 39.844 14.5285 39.8466 14.8838V25.325Z" fill="#292F51"></path>
  <path d="M67.21 17.1065C67.4368 20.0918 65.7818 23.2231 61.8842 24.7121C57.4492 26.4063 52.7333 24.5943 50.8456 19.3322C49.0372 14.2924 51.5801 9.71142 55.5889 8.23137C60.3715 6.46524 64.3951 8.36923 66.2035 13.4112C66.3864 13.9048 66.5328 14.4111 66.6415 14.9261L55.895 18.8949C56.2875 19.7224 56.9861 20.3651 57.8433 20.6877C58.7005 21.0103 59.6494 20.9874 60.4901 20.624C61.1867 20.4349 61.7994 20.0169 62.2296 19.4374C62.6598 18.8578 62.8824 18.1504 62.8617 17.4289L67.21 17.1065ZM61.0585 13.4898C60.5672 12.3151 59.2398 11.164 57.0038 11.9897C56.2381 12.2354 55.5935 12.7615 55.1994 13.4625C54.8054 14.1635 54.6908 14.9876 54.8789 15.7695L61.0585 13.4898Z" fill="#292F51"></path>
  <path d="M77.6646 12.7716C77.1444 12.653 76.612 12.5968 76.0785 12.6041C74.0626 12.6041 72.2453 13.8114 72.2453 17.1309V25.3287H67.2227V7.74142H72.0809V9.98782C72.9398 8.10977 75.0217 7.57319 76.3439 7.57319C76.7902 7.56863 77.2351 7.62522 77.6661 7.74142L77.6646 12.7716Z" fill="#292F51"></path>
  <path d="M93.9856 17.0946C94.2124 20.0799 92.5649 23.2328 88.6605 24.7002C84.0707 26.4248 79.5097 24.5823 77.622 19.3203C75.8136 14.2805 78.3565 9.69954 82.3653 8.22022C87.1479 6.45409 91.1715 8.35732 92.9799 13.3993C93.1629 13.8931 93.3093 14.3997 93.4179 14.9149L82.6713 18.883C83.0639 19.7105 83.7624 20.3533 84.6196 20.6758C85.4768 20.9984 86.4258 20.9755 87.2665 20.612C87.9631 20.4231 88.5759 20.0052 89.0061 19.4257C89.4364 18.8461 89.6589 18.1385 89.6381 17.417L93.9856 17.0946ZM87.8342 13.4779C87.3428 12.3032 86.0154 11.1522 83.7793 11.9778C83.0136 12.2235 82.3691 12.7496 81.975 13.4506C81.5809 14.1516 81.4665 14.9757 81.6545 15.7576L87.8342 13.4779Z" fill="#292F51"></path>
  <path d="M99.0266 25.3205H94.0039V8.01048H98.8621V9.92186C99.7514 8.34546 101.77 7.57468 103.457 7.57468C107.588 7.57468 109.439 10.5592 109.439 14.2145V25.3205H104.415V15.0861C104.415 13.443 103.556 12.2024 101.738 12.2024C101.363 12.1979 100.992 12.2719 100.647 12.4198C100.302 12.5676 99.9923 12.786 99.7371 13.0608C99.4818 13.3357 99.2869 13.6609 99.165 14.0156C99.043 14.3703 98.9966 14.7466 99.0288 15.1202L99.0266 25.3205Z" fill="#292F51"></path>
  <path d="M114.705 17.7646C115.594 20.2541 117.743 21.033 119.697 20.3104C120.426 20.0723 121.055 19.5971 121.483 18.9604C121.911 18.3236 122.114 17.5619 122.059 16.7967L126.684 16.5521C126.834 18.3234 126.382 20.0936 125.402 21.5763C124.421 23.0589 122.968 24.1672 121.279 24.7216C120.2 25.1536 119.043 25.3603 117.88 25.3291C116.718 25.2978 115.574 25.0293 114.519 24.54C113.464 24.0507 112.52 23.3509 111.746 22.4836C110.971 21.6164 110.382 20.5999 110.014 19.4966C109.586 18.4168 109.381 17.2619 109.41 16.1008C109.439 14.9397 109.702 13.7964 110.183 12.7393C110.664 11.6822 111.353 10.7329 112.209 9.94827C113.066 9.16364 114.071 8.55977 115.166 8.17277C119.421 6.60156 122.854 8.33062 124.544 10.8831L120.784 13.735C120.371 13.1059 119.75 12.6423 119.029 12.4255C118.308 12.2086 117.534 12.2524 116.842 12.5492C114.887 13.2718 113.801 15.2433 114.705 17.7646Z" fill="#292F51"></path>
  <path d="M5.29725 17.7639C6.18662 20.2534 8.33598 21.0323 10.2896 20.3097C11.0189 20.0717 11.6475 19.5965 12.0755 18.9599C12.5035 18.3233 12.7064 17.5619 12.6516 16.7967L17.2763 16.5521C17.4258 18.3228 16.9736 20.0921 15.9928 21.574C15.0121 23.0558 13.5602 24.1635 11.872 24.718C10.7922 25.1499 9.63549 25.3566 8.47296 25.3253C7.31044 25.294 6.16657 25.0254 5.1116 24.536C4.05663 24.0466 3.11282 23.3468 2.33812 22.4795C1.56343 21.6121 0.97419 20.5955 0.606596 19.4922C0.179069 18.4124 -0.0263437 17.2574 0.0027016 16.0964C0.0317469 14.9354 0.294699 13.7921 0.775686 12.735C1.25667 11.6779 1.94591 10.7287 2.80215 9.94402C3.65839 9.15937 4.66403 8.55543 5.75901 8.16834C10.0132 6.59713 13.4476 8.32623 15.1366 10.8787L11.3768 13.7306C10.9636 13.1016 10.3423 12.6382 9.62168 12.4213C8.90104 12.2045 8.12708 12.2482 7.43544 12.5448C5.47958 13.2711 4.39306 15.2425 5.29725 17.7639Z" fill="#292F51"></path>
  <path d="M143.623 17.0887C143.85 20.074 142.196 23.2105 138.297 24.6943C133.716 26.4382 129.146 24.5765 127.259 19.3136C125.45 14.2739 127.993 9.69286 132.002 8.21355C136.785 6.44741 140.808 8.35141 142.617 13.3934C142.8 13.8871 142.946 14.3937 143.055 14.909L132.308 18.8771C132.701 19.7046 133.399 20.3474 134.256 20.6699C135.113 20.9925 136.062 20.9696 136.903 20.6061C137.6 20.4172 138.213 19.9993 138.643 19.4197C139.073 18.8401 139.296 18.1326 139.275 17.4111L143.623 17.0887ZM137.472 13.4727C136.98 12.298 135.653 11.147 133.417 11.9726C132.651 12.2183 132.007 12.7444 131.612 13.4454C131.218 14.1465 131.104 14.9705 131.292 15.7524L137.472 13.4727Z" fill="#292F51"></path>
  <path d="M59.5327 3.99129H54.9688L57.3841 0.393799H62.14L59.5327 3.99129Z" fill="#292F51"></path>
</svg>
